<?xml version="1.0" encoding="utf-8"?>
<!-- Generator: Adobe Illustrator 16.0.0, SVG Export Plug-In . SVG Version: 6.00 Build 0)  -->
<!DOCTYPE svg PUBLIC "-//W3C//DTD SVG 1.1//EN" "http://www.w3.org/Graphics/SVG/1.1/DTD/svg11.dtd">
<svg version="1.1" id="Layer_1" xmlns="http://www.w3.org/2000/svg" xmlns:xlink="http://www.w3.org/1999/xlink" x="0px" y="0px"
	 width="488px" height="161px" viewBox="60.5 314.5 488 161" enable-background="new 60.5 314.5 488 161" xml:space="preserve">
<g>
	<g>
		<g>
			<path fill="#FFFFFF" d="M166.738,367.313h-65.822c-5.706,0-10.582,0.574-14.662,1.689s-7.427,2.709-10.009,4.717
				c-2.582,2.008-4.495,4.462-5.738,7.363c-1.243,2.869-1.849,6.088-1.849,9.594c0,3.22,0.574,6.151,1.689,8.829
				c1.116,2.646,2.837,4.941,5.164,6.789c2.327,1.881,5.228,3.348,8.766,4.367c3.506,1.053,7.714,1.563,12.591,1.563h31.716
				c2.773,0,4.781,0.414,6.056,1.242c1.275,0.83,1.913,2.2,1.913,4.145s-0.638,3.347-1.913,4.207
				c-1.275,0.861-3.283,1.308-6.056,1.308H73.281l15.619,19.315h37.899c5.706,0,10.583-0.573,14.663-1.688
				c4.08-1.116,7.427-2.741,10.041-4.813c2.614-2.104,4.526-4.686,5.737-7.746c1.211-3.06,1.785-6.502,1.785-10.327
				c0-6.885-2.391-12.049-7.204-15.46c-4.781-3.41-11.794-5.1-21.006-5.1H99.131c-2.678,0-4.686-0.383-5.993-1.179
				c-1.307-0.797-1.976-2.136-1.976-4.112c0-1.944,0.669-3.283,1.976-4.048c1.307-0.733,3.315-1.115,5.993-1.115h67.607v55.589
				h23.269v-75.129h-18.806H166.738z"/>
			<path fill="#FFFFFF" d="M303.673,367.313h-60.753c-6.502,0-12.527,0.893-18.073,2.646c-5.546,1.753-10.328,4.271-14.312,7.522
				c-4.016,3.251-7.14,7.14-9.435,11.698c-2.295,4.526-3.443,9.53-3.443,14.981c0,5.482,1.147,10.551,3.443,15.236
				c2.295,4.686,5.418,8.733,9.435,12.145c4.017,3.41,8.766,6.088,14.312,8.032s11.571,2.933,18.073,2.933h51.574v-46.984h-42.171
				l-13.929,16.734h32.927v10.901h-28.432c-3.22,0-6.184-0.414-8.861-1.307c-2.709-0.86-5.036-2.071-7.013-3.665
				c-1.976-1.563-3.506-3.475-4.622-5.674c-1.084-2.199-1.626-4.654-1.626-7.363s0.574-5.133,1.689-7.363
				c1.116-2.2,2.678-4.144,4.654-5.77c1.976-1.657,4.335-2.933,7.013-3.825c2.709-0.892,5.61-1.338,8.766-1.338h60.785v55.59h23.237
				v-75.13h-1.18H303.673z"/>
			<path fill="#FFFFFF" d="M495.369,384.047c-1.657-3.442-4.048-6.407-7.203-8.861c-3.156-2.486-7.013-4.398-11.571-5.77
				c-4.558-1.402-9.785-2.072-15.618-2.072h-38.537h-10.168h-75.353v75.162h75.671l-15.618-19.316h-36.688v-10.232h29.356v-17.084
				h-29.356v-8.989h36.593h12.017h54.188c3.602,0,6.375,0.765,8.383,2.295c1.977,1.53,2.965,3.602,2.965,6.248
				c0,2.614-0.988,4.717-2.965,6.279c-1.976,1.563-4.781,2.359-8.383,2.359h-41.788v38.409h23.142v-19.221h16.383
				c5.834,0,11.029-0.669,15.619-2.008c4.559-1.339,8.447-3.22,11.635-5.61s5.609-5.291,7.235-8.701
				c1.657-3.411,2.486-7.204,2.486-11.412C497.855,391.314,497.027,387.489,495.369,384.047z"/>
		</g>
		<g>
			<path fill="#FFFFFF" d="M499.896,411.491c1.18-0.032,2.741-0.159,3.889-0.224c2.295-0.223,2.391-0.254,6.758-1.211
				c2.263-0.574,2.263-0.574,6.534-2.263c2.168-0.956,2.168-0.956,6.184-3.347c0.988-0.638,2.231-1.594,3.188-2.264
				c0.159-0.127,0.287-0.351,0.383-0.51c-1.052-0.51-8.543,1.977-12.813,3.506c-0.16,0.064-14.472,5.229-15.173,6.025v0.127
				C499.003,411.459,499.131,411.491,499.896,411.491z"/>
			<path fill="#FFFFFF" d="M520.423,394.406c1.913-8.542-8.702-13.165-18.52-8.606c1.881,6.598,0.415,13.738-1.402,19.062
				C508.374,406.264,518.638,402.471,520.423,394.406z"/>
			<path fill="#FFFFFF" d="M531.324,397.753l-0.031,0.096c1.338-1.498,3.027-3.57,4.271-5.195c1.339-1.944,1.402-2.008,3.538-6.024
				c1.021-2.104,1.052-2.167,2.519-6.407c0.669-2.231,0.669-2.327,1.466-6.693l0.287-2.646c-0.127,0.765-0.797,3.028-3.856,9.69
				C538.655,382.294,538.655,382.294,531.324,397.753z"/>
			<path fill="#FFFFFF" d="M499.481,380.445c0.096,0.16,0.191,0.319,0.287,0.479c7.172-4.781,17.021-5.546,22.981,1.371
				c0.255,0.574,0.542,1.115,0.893,1.657c0.223,0.255,0.51,0.638,0.733,0.861c5.896,6.024,16.064-2.327,15.587-15.906
				c-0.383-10.837-6.821-12.718-12.527-7.459c-7.745,6.024-21.388,8.479-28.847,2.168c-0.351-0.383-0.733-0.765-1.116-1.116
				c-4.558-7.618-3.697-17.436,2.359-24.129c3.251-1.435,5.992-3.475,7.363-5.833c4.271-7.236-9.212-8.861-17.404-6.535
				c-7.682,2.167-13.101,7.682-8.574,12.081c0.414,0.287,0.829,0.542,1.275,0.765c7.076,7.937,5.387,17.308-2.423,23.045
				l0.128,0.032c-0.383,0.318-0.766,0.669-1.116,1.02c-0.542,0.574-1.052,1.211-1.53,1.912
				C482.364,366.165,492.691,370.022,499.481,380.445z"/>
			<path fill="#FFFFFF" d="M502.892,359.312c8.447,8.255,19.444,4.749,22.186-3.825c3.825-12.017-9.34-20.559-19.508-15.874
				C499.035,342.609,496.325,351.439,502.892,359.312z"/>
			<path fill="#FFFFFF" d="M542.8,359.822c-0.479-2.677-0.574-2.996-1.754-6.821c-0.542-1.498-0.669-1.849-1.498-3.729
				c2.55,5.865,3.442,11.57,3.729,14.28C543.15,362.372,542.927,360.938,542.8,359.822z"/>
			<path fill="#FFFFFF" d="M539.038,348.219c0.191,0.415,0.351,0.765,0.479,1.084c-0.16-0.319-0.287-0.669-0.446-0.988
				L539.038,348.219z"/>
			<path fill="#FFFFFF" d="M536.425,343.565c-0.383-0.574-0.383-0.605-1.116-1.625c-0.287-0.415-0.287-0.415-0.828-1.147
				c-0.224-0.287-0.446-0.574-0.67-0.861l-0.191-0.223c0.51,0.669,0.797,1.243,1.021,2.422c0.51,2.773,0.51,5.578,1.243,8.319
				c0.956,3.666,1.976,5.132,2.582,6.024c0.318,0.382,0.797,0.956,1.242,1.147c1.85,0.733,2.231-4.75-2.581-12.941L536.425,343.565z
				"/>
			<path fill="#FFFFFF" d="M531.579,337.35c-0.191-0.223-0.382-0.415-0.573-0.606l-0.255-0.255c-1.275-1.275-2.678-1.944-3.22-2.136
				c-0.733-0.287-1.562-0.446-2.008-0.478c-2.582-0.096-3.953,2.582-0.224,6.949c2.009,2.008,3.921,3.028,5.674,3.06
				c3.092,0.032,3.283-3.442,1.657-5.387C532.153,337.956,532.025,337.828,531.579,337.35z"/>
			<path fill="#FFFFFF" d="M478.858,345.638c-2.231-7.459-11.125-5.642-16.097,3.283c-2.486,4.431-3.666,10.455-2.551,14.854
				l12.719,0.446C477.328,359.503,480.707,351.853,478.858,345.638z"/>
			<path fill="#FFFFFF" d="M455.525,363.615c1.435-7.108,9.085-22.95,11.603-26.265c-0.733,0.797-1.625,1.88-2.327,2.709
				c-1.466,1.849-1.529,1.944-3.92,5.833c-1.147,2.072-1.18,2.136-2.9,6.279c-0.797,2.199-0.829,2.263-1.85,6.598
				c-0.286,1.402-0.51,3.283-0.669,4.813L455.525,363.615z"/>
			<path fill="#FFFFFF" d="M496.39,323.453c-2.327,0.159-2.327,0.159-6.79,0.988c-2.295,0.51-2.295,0.51-6.598,2.04
				c-2.168,0.861-2.168,0.861-6.279,3.124c-1.243,0.701-2.773,1.849-3.953,2.677c3.953-2.837,16.862-8.415,24.831-8.861
				L496.39,323.453z"/>
			<path fill="#FFFFFF" d="M521.284,329.19c-3.315-1.944-7.332-3.379-9.403-3.379c-2.009,0-0.797,1.148-0.415,1.53
				c2.423,1.817,5.897,3.092,10.774,4.59c3.634,1.116,5.163,1.625,6.98,3.092c-2.837-2.582-4.973-3.952-6.088-4.717L521.284,329.19z
				"/>
		</g>
	</g>
	<g>
		<path fill="#FFFFFF" d="M247.223,466.38c0.733,0.446,1.817,0.829,2.932,0.829c1.689,0,2.646-0.893,2.646-2.168
			c0-1.179-0.669-1.881-2.391-2.518c-2.072-0.733-3.347-1.817-3.347-3.603c0-1.976,1.658-3.442,4.112-3.442
			c1.307,0,2.231,0.287,2.805,0.638l-0.446,1.339c-0.415-0.224-1.275-0.605-2.422-0.605c-1.721,0-2.391,1.052-2.391,1.912
			c0,1.18,0.765,1.785,2.518,2.454c2.167,0.829,3.251,1.881,3.251,3.729c0,1.977-1.466,3.666-4.463,3.666
			c-1.211,0-2.582-0.351-3.251-0.797L247.223,466.38z"/>
		<path fill="#FFFFFF" d="M273.966,461.886c0,4.367-2.646,6.693-5.897,6.693c-3.347,0-5.706-2.613-5.706-6.438
			c0-4.048,2.518-6.662,5.896-6.662C271.703,455.479,273.966,458.124,273.966,461.886z M264.084,462.108
			c0,2.71,1.466,5.164,4.048,5.164c2.614,0,4.08-2.391,4.08-5.291c0-2.519-1.307-5.164-4.048-5.164
			C265.455,456.817,264.084,459.304,264.084,462.108z"/>
		<path fill="#FFFFFF" d="M282.444,455.67h6.853v1.371h-5.195v4.239h4.813v1.37h-4.813v5.737h-1.658V455.67z"/>
		<path fill="#FFFFFF" d="M300.39,457.072h-3.856v-1.402h9.403v1.402h-3.889v11.315h-1.658V457.072z"/>
		<path fill="#FFFFFF" d="M315.785,468.388l-3.219-12.718h1.721l1.498,6.438c0.383,1.594,0.733,3.156,0.957,4.399h0.031
			c0.224-1.275,0.605-2.773,1.052-4.399l1.689-6.406h1.722l1.562,6.438c0.351,1.498,0.701,3.028,0.893,4.367h0.032
			c0.255-1.403,0.638-2.806,1.02-4.399l1.689-6.406h1.689l-3.602,12.718h-1.722l-1.594-6.63c-0.382-1.626-0.669-2.869-0.828-4.144
			h-0.032c-0.223,1.274-0.51,2.518-0.988,4.144l-1.816,6.63h-1.754V468.388z"/>
		<path fill="#FFFFFF" d="M338.066,464.403l-1.307,3.984h-1.689l4.335-12.718h1.976l4.335,12.718h-1.753l-1.37-3.984H338.066z
			 M342.242,463.097l-1.243-3.665c-0.287-0.829-0.479-1.594-0.67-2.327h-0.031c-0.191,0.765-0.383,1.53-0.638,2.295l-1.243,3.666
			h3.825V463.097z"/>
		<path fill="#FFFFFF" d="M353.908,455.861c0.829-0.159,2.008-0.255,3.155-0.255c1.753,0,2.901,0.318,3.666,1.052
			c0.638,0.573,0.988,1.435,0.988,2.423c0,1.688-1.052,2.805-2.391,3.251v0.063c0.988,0.351,1.562,1.243,1.88,2.55
			c0.415,1.785,0.733,2.996,0.988,3.475h-1.689c-0.223-0.351-0.478-1.466-0.86-3.028c-0.383-1.753-1.052-2.422-2.55-2.486h-1.562
			v5.515h-1.658v-12.559H353.908z M355.565,461.631h1.689c1.753,0,2.869-0.956,2.869-2.423c0-1.625-1.18-2.358-2.933-2.391
			c-0.797,0-1.371,0.063-1.626,0.159V461.631L355.565,461.631z"/>
		<path fill="#FFFFFF" d="M377.018,462.428h-4.94v4.59h5.514v1.37h-7.14V455.67h6.885v1.371h-5.228v4.016h4.941v1.371H377.018z"/>
	</g>
</g>
</svg>
